# xmcd
#
# Track frame offsets:
#	150
#	18306
#	37895
#	49259
#	60649
#	76178
#	89562
#	101091
#	117130
#	129990
#	148015
#	162468
#	178951
#	192300
#	201929
#
# Disc length: 2859
#
# Revision: 2
# Processed by: cddbd v1.5.1PL0 Copyright (c) Steve Scherf et al.
# Submitted via: OrangeCD 5.0
# Normalized: r1:DSETVAR1
#
DISCID=d10b290f
DTITLE=Various Artist - 15 Down Home Country Blues Classics
DYEAR=1996
DGENRE=Blues
TTITLE0=Mississippi Fred McDowell - Frisco Line
TTITLE1=Lightning Hopkins - Have You Ever Loved A Woman
TTITLE2=John Jackson - Going Down In Georgia On A Horn
TTITLE3=Lil' Son Jackson - Cairo Blues
TTITLE4=Mance Lipscomb - 'Bout A Spoonful
TTITLE5=Black Ace - Drink On Little Girl
TTITLE6=Snooks Eaglin - Country Bay Down In New Orleans
TTITLE7=Bukka White - Columbus Mississippi Blues
TTITLE8=Dr. Ross - Shake 'em On Down
TTITLE9=Robert Pete Williams - Just Tippin' In
TTITLE10=Jesse Fuller - Hump In My Back
TTITLE11=Big Joe Williams - Brother James
TTITLE12=Smoky Babe - I'm Broke And I'm Hungry
TTITLE13=R.L. Burnside - Poor Black Mattie
TTITLE14=K.C. Douglas - Mercury Blue
EXTD=ID3G: 0
EXTT0=
EXTT1=
EXTT2=
EXTT3=
EXTT4=
EXTT5=
EXTT6=
EXTT7=
EXTT8=
EXTT9=
EXTT10=
EXTT11=
EXTT12=
EXTT13=
EXTT14=
PLAYORDER=
